<?xml version="1.0" standalone="no"?>
<!DOCTYPE svg PUBLIC "-//W3C//DTD SVG 20010904//EN"
 "http://www.w3.org/TR/2001/REC-SVG-20010904/DTD/svg10.dtd">
<svg version="1.0" xmlns="http://www.w3.org/2000/svg"
 width="993.000000pt" height="993.000000pt" viewBox="0 0 993.000000 993.000000"
 preserveAspectRatio="xMidYMid meet">
<metadata>
Created by potrace 1.14, written by Peter Selinger 2001-2017
</metadata>
<g transform="translate(0.000000,993.000000) scale(0.100000,-0.100000)"
fill="#000000" stroke="none">
<path d="M4569 9906 c-2 -2 -40 -6 -84 -10 -44 -3 -91 -8 -105 -11 -14 -2 -47
-6 -75 -10 -27 -3 -75 -10 -105 -15 -30 -5 -71 -12 -90 -15 -75 -10 -330 -66
-440 -96 -528 -146 -1025 -370 -1458 -661 -176 -118 -388 -276 -458 -343 -12
-11 -45 -40 -74 -65 -30 -25 -73 -63 -96 -85 -23 -22 -66 -63 -95 -91 -67 -64
-209 -214 -269 -285 -25 -29 -52 -60 -62 -70 -9 -9 -40 -48 -69 -86 -29 -37
-57 -72 -62 -78 -59 -70 -265 -375 -344 -510 -138 -236 -241 -448 -333 -685
-28 -74 -55 -142 -60 -150 -21 -42 -152 -486 -165 -559 -4 -24 -18 -95 -20
-101 -2 -6 -16 -78 -21 -105 -2 -11 -6 -31 -8 -45 -3 -14 -8 -41 -10 -60 -3
-19 -7 -44 -10 -55 -2 -11 -7 -47 -10 -80 -4 -33 -9 -73 -12 -90 -40 -239 -39
-866 2 -1165 3 -25 8 -58 10 -75 3 -29 10 -78 20 -140 59 -366 201 -848 340
-1153 13 -29 24 -55 24 -58 0 -9 165 -335 204 -402 20 -35 36 -68 36 -73 0 -5
4 -9 8 -9 5 0 16 -16 25 -35 15 -32 187 -296 232 -355 11 -15 29 -40 40 -56
11 -16 22 -31 25 -34 3 -3 21 -25 40 -50 19 -25 38 -46 42 -48 4 -2 8 -8 8
-14 0 -5 6 -15 13 -22 28 -30 123 -141 136 -160 8 -12 98 -104 200 -206 161
-160 244 -238 335 -312 12 -10 26 -22 32 -27 27 -23 243 -188 269 -207 37 -26
263 -175 290 -191 139 -83 204 -119 340 -188 397 -203 837 -358 1243 -440 151
-31 245 -46 432 -70 175 -23 292 -29 575 -30 300 0 478 10 683 41 73 11 157
24 177 28 11 2 58 11 105 20 121 23 112 21 255 56 333 82 661 203 980 361 194
96 224 112 330 174 73 42 299 187 305 195 3 4 20 15 38 25 17 11 32 23 32 27
0 4 4 8 10 8 12 0 104 69 108 81 2 5 10 9 17 9 7 0 15 3 17 8 2 4 37 34 78 66
41 33 84 68 95 78 11 9 49 43 85 75 133 118 396 387 490 503 25 30 51 61 58
69 8 8 32 39 55 70 23 31 50 65 60 76 26 28 198 278 244 353 21 35 48 80 61
100 12 20 27 48 33 62 6 14 16 32 24 40 20 23 188 362 235 475 22 55 45 109
50 120 21 45 82 219 150 430 14 43 87 334 93 370 3 17 12 66 21 110 8 44 22
130 31 190 9 61 19 124 22 140 10 46 13 1083 4 1140 -5 28 -12 77 -16 110 -3
32 -8 62 -10 65 -2 3 -5 28 -8 55 -3 28 -8 57 -11 65 -3 8 -8 33 -11 55 -3 22
-19 101 -36 175 -17 74 -32 142 -34 151 -10 47 -122 413 -136 439 -4 8 -31 76
-60 150 -28 74 -65 164 -81 200 -81 177 -263 521 -280 528 -4 2 -8 8 -8 14 0
31 -317 477 -435 611 -11 13 -42 49 -70 82 -46 53 -82 92 -184 200 -39 40
-146 142 -236 225 -45 41 -208 179 -243 205 -7 6 -22 18 -33 28 -10 9 -21 17
-23 17 -3 0 -36 23 -73 52 -99 75 -360 245 -493 320 -414 233 -840 401 -1300
512 -117 28 -348 72 -425 81 -27 4 -57 8 -65 10 -8 3 -44 7 -80 10 -36 4 -76
9 -90 12 -28 7 -884 15 -891 9z"/>
</g>
</svg>
